<svg width="96" height="114" viewBox="0 0 96 114" fill="none" xmlns="http://www.w3.org/2000/svg">
<g clip-path="url(#clip0)">
<path d="M27.2246 36.5752L26.5871 35.471C26.5871 35.471 23.9417 35.2807 25.0288 32.7719L17.3788 19.5217L19.4846 14.9524L29.0921 10.0598L37.3796 24.4142L39.7866 24.3332L42.4074 28.8726C42.4074 28.8726 47.7684 27.2497 49.4962 28.5423C51.1885 29.7736 54.7682 36.5404 54.7682 36.5404C54.7682 36.5404 63.6213 33.8828 64.3588 37.7101C64.5479 38.746 65.506 38.8472 65.506 38.8472L82.1872 67.7399L81.5694 69.0782L82.0558 69.7789C82.0558 69.7789 82.7046 69.486 83.1164 73.1743C83.2631 74.5618 84.299 74.3727 81.7258 78.5574C81.7258 78.5574 81.7214 79.5415 83.0596 80.1593C84.3978 80.7771 85.8171 83.8019 85.8171 83.8019L80.7547 89.342L82.4737 92.6027C82.4737 92.6027 77.9312 100.46 65.5429 102.378L60.5422 94.1413C60.5422 94.1413 55.6132 96.0873 53.4187 96.5364L59.8645 107.701L57.9819 109.115C57.9819 109.115 58.133 109.518 56.8777 109.753L54.6529 111.282L51.6425 106.068L49.9837 106.453L44.6712 97.2518C44.6712 97.2518 43.3848 96.4405 42.6411 95.1523C41.8973 93.8641 41.3383 94.5958 40.4762 92.3944L39.2607 91.7057C39.2607 91.7057 22.3531 63.2708 22.5795 62.8129C22.8059 62.355 20.9744 61.4495 21.4221 59.3916C21.8698 57.3337 25.6768 52.0276 25.6768 52.0276C25.6768 52.0276 21.2428 44.7727 21.2402 44.2016C21.2731 43.6919 21.1497 41.6365 27.2246 36.5752Z" stroke="#577699" stroke-miterlimit="10"/>
<path d="M27.2227 36.5742L29.631 40.7456C29.631 40.7456 30.7004 42.1729 42.405 34.6791C44.4199 33.3523 44.0347 31.6935 44.0347 31.6935L42.4055 28.8717" stroke="#577699" stroke-miterlimit="10"/>
<path d="M27.6418 37.7236C27.6418 37.7236 23.2327 41.9868 23.8184 43.2845C24.4748 44.7049 26.6908 45.1431 33.2148 42.2762C39.7387 39.4094 45.3159 35.0443 46.3372 33.5549C47.3585 32.0656 48.7738 30.2669 47.0581 29.7035C45.3423 29.1401 42.9025 29.7308 42.9025 29.7308" stroke="#577699" stroke-miterlimit="10"/>
<path d="M25.7109 52.0879L28.7214 57.3021C28.7214 57.3021 33.1533 58.1785 44.4405 51.6618C55.7277 45.1452 57.1873 41.4398 57.3523 41.0174C57.4819 40.5336 54.8282 36.5039 54.8282 36.5039" stroke="#577699" stroke-miterlimit="10"/>
<path d="M22.6133 62.875C22.6133 62.875 33.1361 64.2427 48.0425 55.6364C64.1759 46.3218 65.5044 38.8479 65.5044 38.8479" stroke="#577699" stroke-miterlimit="10"/>
<path d="M44.6719 97.252C44.6719 97.252 61.3943 99.866 81.6298 78.5316" stroke="#577699" stroke-miterlimit="10"/>
<path d="M80.7534 89.3418L77.1055 83.0234" stroke="#577699" stroke-miterlimit="10"/>
<path d="M51.607 106.007L46.6133 97.3574" stroke="#577699" stroke-miterlimit="10"/>
<path d="M40.5117 92.4551C40.5117 92.4551 66.9088 93.4094 81.5695 69.0775" stroke="#577699" stroke-miterlimit="10"/>
</g>
<defs>
<clipPath id="clip0">
<rect width="50.8583" height="102" fill="white" transform="translate(0 25.5469) rotate(-30)"/>
</clipPath>
</defs>
</svg>
