<svg width="96" height="117" viewBox="0 0 96 117" fill="none" xmlns="http://www.w3.org/2000/svg">
<g clip-path="url(#clip0)">
<path d="M17.934 15.8072L18.5275 13.7997L24.6394 10.2709L26.2147 11.0263L31.0714 19.4385C31.0714 19.4385 30.6094 21.3701 31.8608 21.261C32.369 21.2305 32.8771 21.2 33.413 21.0659L38.2318 29.4123L39.2963 29.5864L39.8275 30.5065L41.3417 30.2456L41.9109 31.2314L42.4367 30.9278L40.9948 28.4305L41.3383 27.3559L43.6385 26.0279L45.3839 29.051L47.947 27.5712L54.0558 38.1521C54.0558 38.1521 59.2098 35.0889 61.6144 36.0665C62.9064 36.6349 62.0446 37.5706 62.0446 37.5706L62.6138 38.5564L63.3848 38.3741L80.7249 68.4081C80.7249 68.4081 80.5332 69.7456 81.2413 70.213C82.0631 70.8777 82.6045 71.9671 82.5998 73.0214C82.6303 73.5295 82.7922 73.9618 83.1513 74.2802C82.8966 76.2674 81.982 78.0223 80.5666 79.3652L83.3745 84.2284L82.2579 87.1513L86.6594 94.7749L86.1336 95.0784L86.9304 96.4585C86.9304 96.4585 86.1093 98.0717 81.3517 99.2413L80.6687 98.0583L75.4768 101.056L69.9371 91.4607L63.227 98.0513L66.2245 103.243L65.633 103.585L67.0369 106.016L63.4223 108.103L63.2326 107.775L62.8261 109.499L58.2257 112.155L50.03 97.9594C50.03 97.9594 45.6186 98.6662 43.5575 96.614C42.7254 95.78 42.8745 95.431 42.8745 95.431C41.575 95.305 40.6189 94.1045 40.7449 92.805C40.7727 92.7013 40.7348 92.6356 40.8005 92.5976L40.5247 91.9682L39.7056 91.9154L22.4793 62.0786L23.0782 61.2946L22.5951 60.6097C22.5951 60.6097 18.767 59.1395 27.5911 53.7821L21.5201 43.2669L26.8434 40.1935L26.1984 39.0762L28.7615 37.5964L27.7749 35.8877L28.111 35.2556L23.2163 26.7777C23.2163 26.7777 25.448 24.8758 22.8009 24.3887L17.934 15.8072Z" stroke="#7DBFEE" stroke-miterlimit="10"/>
<path d="M19.0703 15.5L23.6994 23.5178" stroke="#7DBFEE" stroke-miterlimit="10"/>
<path d="M20.582 14.627L25.2111 22.6448" stroke="#7DBFEE" stroke-miterlimit="10"/>
<path d="M22.0938 13.7559L26.7228 21.7737" stroke="#7DBFEE" stroke-miterlimit="10"/>
<path d="M23.6055 12.8828L28.2346 20.9006" stroke="#7DBFEE" stroke-miterlimit="10"/>
<path d="M25.1797 11.9707L29.8088 19.9885" stroke="#7DBFEE" stroke-miterlimit="10"/>
<path d="M38.1645 29.4486L28.1094 35.2539" stroke="#7DBFEE" stroke-miterlimit="10"/>
<path d="M45.3825 29.0514L28.3814 39.2175L26.8421 40.1938L32.7992 50.5119" stroke="#7DBFEE" stroke-miterlimit="10"/>
<path d="M27.563 53.8847L28.6634 55.7905C28.6634 55.7905 37.4652 51.7604 42.5154 48.6693C47.5657 45.5783 52.6437 42.3836 55.0042 39.794L54.0658 38.3204" stroke="#7DBFEE" stroke-miterlimit="10"/>
<path d="M22.7656 42.5449L30.0128 55.0974" stroke="#7DBFEE" stroke-miterlimit="10"/>
<path d="M24.0156 41.8242L31.3387 54.5082" stroke="#7DBFEE" stroke-miterlimit="10"/>
<path d="M25.5273 40.9512L32.8884 53.7008" stroke="#7DBFEE" stroke-miterlimit="10"/>
<path d="M28.3828 39.2168L32.8601 46.9717" stroke="#7DBFEE" stroke-miterlimit="10"/>
<path d="M23.0469 61.3984C23.0469 61.3984 44.9345 57.8748 62.6482 38.6222" stroke="#7DBFEE" stroke-miterlimit="10"/>
<path d="M42.8047 95.4688C42.8047 95.4688 65.3815 96.6295 82.6716 73.1526" stroke="#7DBFEE" stroke-miterlimit="10"/>
<path d="M40.4587 92.0064C40.4587 92.0064 66.7538 91.1081 80.8005 68.5398" stroke="#7DBFEE" stroke-miterlimit="10"/>
<path d="M46.5255 91.1308L46.4537 87.6672L55.0203 83.6851L57.4487 87.8912" stroke="#7DBFEE" stroke-miterlimit="10"/>
<path d="M65.1008 83.9991L62.2929 79.1358L70.7681 73.6293L74.3489 76.6442" stroke="#7DBFEE" stroke-miterlimit="10"/>
<path d="M50.029 97.9587C50.029 97.9587 67.9348 94.368 80.6416 79.4959" stroke="#7DBFEE" stroke-miterlimit="10"/>
<path d="M63.1594 98.0877L60.8828 94.1445" stroke="#7DBFEE" stroke-miterlimit="10"/>
<path d="M69.8989 91.3937L68.9883 89.8164" stroke="#7DBFEE" stroke-miterlimit="10"/>
</g>
<defs>
<clipPath id="clip0">
<rect width="48.1122" height="107" fill="white" transform="translate(0 24.0566) rotate(-30)"/>
</clipPath>
</defs>
</svg>
