<svg width="97" height="116" viewBox="0 0 97 116" fill="none" xmlns="http://www.w3.org/2000/svg">
<g clip-path="url(#clip0)">
<path d="M24.8562 31.1504L17.8079 18.9423L18.1333 16.5984C18.1333 16.5984 22.9415 12.6211 26.9284 11.5206L29.1495 11.9089L36.408 24.481L38.7853 25.9805L42.1372 31.7862C42.1372 31.7862 48.4883 29.2411 52.2697 31.5052L55.694 37.4362C55.694 37.4362 59.9498 36.6498 60.8833 38.2668L62.3888 40.8743C62.3888 40.8743 67.5303 39.4174 69.5648 41.8388L72.3965 46.7435L71.7468 49.752C71.7468 49.752 73.7611 50.3473 72.4238 53.8323L75.3624 58.9219C75.7902 61.2102 75.406 63.5761 74.2761 65.6114L76.0743 68.7261C76.0743 68.7261 79.6434 70.333 81.2542 72.999C82.865 75.665 87.9925 84.6701 87.9925 84.6701C87.9925 84.6701 89.8746 91.6506 74.4268 101.397C58.979 111.143 52.5762 104.187 52.5762 104.187L46.3753 93.4466C46.3753 93.4466 44.8676 91.469 45.4623 90.1152L42.1517 84.3811C42.1517 84.3811 37.3296 83.4976 36.4345 82.2641C35.5394 81.0307 33.3341 76.894 33.3341 76.894C33.3341 76.894 30.8628 75.7829 29.9326 74.1719L27.312 73.2982L24.3321 68.1369C24.3321 68.1369 23.2835 65.8385 26.4581 61.953L24.8252 59.1248C24.8892 57.445 25.565 55.8466 26.7255 54.6305L23.4838 49.0158C23.4838 49.0158 22.7295 44.6778 28.5022 40.0561L24.9471 33.8984L24.8562 31.1504Z" stroke="#7DBFEE" stroke-miterlimit="10"/>
<path d="M18.0195 17.4043C18.0195 17.4043 22.9295 16.7176 27.9185 11.6891" stroke="#7DBFEE" stroke-miterlimit="10"/>
<path d="M19.4801 17.046L19.3941 18.8538L26.4115 31.0082" stroke="#7DBFEE" stroke-miterlimit="10"/>
<path d="M21.1642 16.5527L21.2347 18.1906L28.4002 30.6016" stroke="#7DBFEE" stroke-miterlimit="10"/>
<path d="M22.7135 15.6566L23.3579 17.5996L30.4407 29.8674" stroke="#7DBFEE" stroke-miterlimit="10"/>
<path d="M24.9453 33.8984C24.9453 33.8984 33.1514 33.9738 38.7895 25.9771" stroke="#7DBFEE" stroke-miterlimit="10"/>
<path d="M28.4871 40.0263C28.4871 40.0263 37.3189 39.3666 42.1392 31.7862" stroke="#7DBFEE" stroke-miterlimit="10"/>
<path d="M24.8555 31.1504C24.8555 31.1504 31.7979 31.4622 36.4072 24.481" stroke="#7DBFEE" stroke-miterlimit="10"/>
<path d="M26.7311 54.6371L29.0667 58.6826L37.4046 56.685L52.1248 48.1864L57.3126 40.0438L55.7089 37.4453" stroke="#7DBFEE" stroke-miterlimit="10"/>
<path d="M23.4844 49.0156C23.4844 49.0156 29.5408 45.7258 32.0804 48.7466L36.7517 56.8376" stroke="#7DBFEE" stroke-miterlimit="10"/>
<path d="M52.3128 31.4955C52.3128 31.4955 46.9743 34.4027 47.2541 39.2692L52.3181 48.0404" stroke="#7DBFEE" stroke-miterlimit="10"/>
<path d="M32.0618 48.7173C32.0618 48.7173 35.3248 41.2644 47.2428 39.3081" stroke="#7DBFEE" stroke-miterlimit="10"/>
<path d="M26.4572 61.9537C26.4572 61.9537 49.102 61.3384 62.3938 40.8716" stroke="#7DBFEE" stroke-miterlimit="10"/>
<path d="M25.0078 69.3066C25.0078 69.3066 51.7011 71.4456 70.545 43.4533" stroke="#7DBFEE" stroke-miterlimit="10"/>
<path d="M29.9317 74.1721C29.9317 74.1721 54.7521 73.7009 71.7415 49.7308" stroke="#7DBFEE" stroke-miterlimit="10"/>
<path d="M50.2022 100.061C50.2022 100.061 55.6273 102.195 58.0286 101.215L55.5723 96.9603L60.3851 95.7331L62.9688 100.208C62.9688 100.208 82.9227 92.9202 85.2503 79.8098" stroke="#7DBFEE" stroke-miterlimit="10"/>
<path d="M42.1576 84.3783C42.1576 84.3783 62.1628 82.6775 74.2715 65.5907L77.7165 71.5575C78.4547 71.8166 79.0757 72.3316 79.4669 73.0092C79.8581 73.6868 79.9936 74.4821 79.8489 75.251C79.5469 78.2417 73.7943 87.0046 68.0541 86.2534L62.5675 76.8192" stroke="#7DBFEE" stroke-miterlimit="10"/>
<path d="M33.3411 76.8898C33.3411 76.8898 58.3407 76.3708 72.4206 53.8101" stroke="#7DBFEE" stroke-miterlimit="10"/>
</g>
<defs>
<clipPath id="clip0">
<rect width="52.6731" height="102.411" fill="white" transform="translate(0 26.3359) rotate(-30)"/>
</clipPath>
</defs>
</svg>
