<svg width="52" height="71" viewBox="0 0 52 71" fill="none" xmlns="http://www.w3.org/2000/svg">
<path d="M50.7645 15.3061L36.5142 1.171C36.3112 0.966305 36.0684 0.804295 35.8004 0.694711C35.5324 0.585127 35.2448 0.530232 34.9548 0.533327H1.61455C1.32932 0.533327 1.05576 0.645299 0.854067 0.84461C0.652373 1.04392 0.539063 1.31425 0.539063 1.59611V68.286C0.538891 68.8547 0.763782 69.401 1.16569 69.8081C1.56761 70.2152 2.11468 70.4508 2.69005 70.4647H49.2588C49.8344 70.4649 50.3871 70.2426 50.7991 69.8455C51.2111 69.4483 51.4495 68.9077 51.4636 68.3391V16.8471C51.4388 16.2639 51.1886 15.7124 50.7645 15.3061V15.3061Z" stroke="#7DBFEE" stroke-linecap="round" stroke-linejoin="round"/>
<path d="M9.67969 59.2539H42.2133" stroke="#7DBFEE" stroke-miterlimit="10" stroke-linecap="round"/>
<path d="M9.67969 48.1992H42.2133" stroke="#7DBFEE" stroke-miterlimit="10" stroke-linecap="round"/>
<path d="M9.67969 37.5723H29.9527" stroke="#7DBFEE" stroke-miterlimit="10" stroke-linecap="round"/>
<path d="M34.9023 0.587891V16.8485H51.4111" stroke="#7DBFEE" stroke-linecap="round" stroke-linejoin="round"/>
</svg>
