<svg width="102" height="129" viewBox="0 0 102 129" fill="none" xmlns="http://www.w3.org/2000/svg">
<g clip-path="url(#clip0)">
<path d="M21.4957 26.8393L15.8496 17.0599C15.8496 17.0599 19.4073 9.1477 27.7549 10.1864L32.7055 18.7611C32.7055 18.7611 36.8215 17.7075 40.058 19.7128L44.845 28.004L46.366 27.6928L52.7157 38.1998L54.133 37.3815C54.133 37.3815 55.4131 42.2172 58.4632 41.1176C59.9025 40.6646 61.3307 40.029 62.5654 39.2216L64.3736 41.8626L63.0791 42.8935L64.1837 44.8069C64.1837 44.8069 62.8672 45.4725 63.3962 45.734C64.1078 45.9846 64.8793 46.0116 65.6807 45.9268C66.2995 45.853 67.3633 47.6955 65.1664 48.9638C63.9617 49.6594 64.6434 50.0217 65.4039 49.8661C66.0936 49.7514 66.8241 49.7075 67.5248 49.7754L70.5524 55.0195L69.7239 55.8757L74.2983 64.2897L75.2225 64.4175L77.5655 68.6394C78.5116 69.1326 78.9127 70.3183 78.4605 71.3352L84.884 82.4611C84.884 82.4611 87.395 83.3735 86.2181 85.7537L89.2867 91.0686C89.2867 91.0686 91.2038 93.0798 91.1388 94.4402C91.0738 95.8005 92.8433 96.5742 91.4348 99.3716C90.0263 102.169 88.6338 104.012 82.8587 108.575L85.109 112.472C85.109 112.472 82.3629 118.026 76.8178 117.259L74.6494 113.504C74.6494 113.504 66.8951 118.075 59.6295 116.128L57.9221 113.334C57.9221 113.334 56.5508 113.087 55.6937 109.802L52.7479 104.7C52.7479 104.7 50.0601 105.118 49.9227 101.607L45.6267 94.1658C44.7625 93.8144 44.2006 93.0049 44.1458 92.0917C44.1319 91.2494 41.3404 91.1603 42.5991 88.9218L42.5662 88.3739L41.8356 88.4177L39.7081 84.7327L39.9287 84.1329L35.5919 76.6212C35.5919 76.6212 32.7704 76.6439 33.3504 74.7028L31.9184 72.2225C31.9184 72.2225 29.8275 72.2014 31.3317 70.388C32.8359 68.5747 32.4517 68.8911 31.4376 69.0986C30.4236 69.3061 29.1151 69.4946 28.6132 68.4616C28.0404 67.4695 28.4956 67.1122 28.6563 66.736L27.2652 64.3265L25.5016 64.8723L24.0477 62.0268C25.8902 60.963 27.58 59.7984 29.2997 58.5221C31.2211 56.9403 28.1285 53.0566 28.1285 53.0566L28.6545 52.6585L22.231 41.5327L22.757 41.1345L17.8064 32.5598C17.6647 32.6416 17.6011 29.7493 21.4957 26.8393Z" stroke="#7DBFEE" stroke-miterlimit="10"/>
<path d="M22.6178 41.2164C28.3322 34.4212 36.1573 29.8089 44.8475 28.0041" stroke="#7DBFEE" stroke-miterlimit="10"/>
<path d="M16.7188 15.6152L21.9966 24.7568" stroke="#7DBFEE" stroke-miterlimit="10"/>
<path d="M17.4922 14.5059L23.0156 24.0726" stroke="#7DBFEE" stroke-miterlimit="10"/>
<path d="M18.7656 13.1094L24.4936 23.0305" stroke="#7DBFEE" stroke-miterlimit="10"/>
<path d="M20.844 25.7063C24.4442 22.7774 28.4127 20.4862 32.7084 18.7619" stroke="#7DBFEE" stroke-miterlimit="10"/>
<path d="M21.4987 26.8389C21.4987 26.8389 33.8124 18.2178 40.102 19.7833" stroke="#7DBFEE" stroke-miterlimit="10"/>
<path d="M27.0833 64.3379C27.0833 64.3379 54.8923 48.1878 63.0798 42.8939" stroke="#7DBFEE" stroke-miterlimit="10"/>
<path d="M42.8594 28.4902L49.4874 39.9704" stroke="#7DBFEE" stroke-miterlimit="10"/>
<path d="M44.1992 28.1895L50.6227 39.3153" stroke="#7DBFEE" stroke-miterlimit="10"/>
<path d="M45.5352 27.8887L51.7541 38.6602" stroke="#7DBFEE" stroke-miterlimit="10"/>
<path d="M28.5124 52.7403L39.0713 46.6442L37.762 44.3765L39.1793 43.5582L40.6413 45.9267L42.1294 45.0675L40.7383 42.6581L42.0848 41.8807L43.3531 44.0775L52.7562 38.2707" stroke="#7DBFEE" stroke-miterlimit="10"/>
<path d="M23.3047 40.4414L29.9327 51.9215" stroke="#7DBFEE" stroke-miterlimit="10"/>
<path d="M24.0898 39.5137L30.9225 51.3481" stroke="#7DBFEE" stroke-miterlimit="10"/>
<path d="M25.0586 38.5762L32.0549 50.6941" stroke="#7DBFEE" stroke-miterlimit="10"/>
<path d="M27.1133 36.7305L34.396 49.3444" stroke="#7DBFEE" stroke-miterlimit="10"/>
<path d="M26.1016 37.5977L33.2615 49.999" stroke="#7DBFEE" stroke-miterlimit="10"/>
<path d="M28.7227 35.4238L34.8597 46.0536" stroke="#7DBFEE" stroke-miterlimit="10"/>
<path d="M30.1562 34.3105L34.8204 42.3892" stroke="#7DBFEE" stroke-miterlimit="10"/>
<path d="M31.7383 72.2324C31.7383 72.2324 45.6008 64.9848 48.675 62.454L50.6798 65.9264C50.6798 65.9264 36.3351 74.3028 33.2112 74.7836" stroke="#7DBFEE" stroke-miterlimit="10"/>
<path d="M52.8553 60.0405L54.8601 63.5129C54.8601 63.5129 68.9513 55.1883 69.6131 53.3889L68.1812 50.9086C68.1402 50.8378 56.8786 58.6625 52.8553 60.0405Z" stroke="#7DBFEE" stroke-miterlimit="10"/>
<path d="M35.4521 76.7028C35.4521 76.7028 59.2446 65.7063 69.7668 55.9463" stroke="#7DBFEE" stroke-miterlimit="10"/>
<path d="M39.5273 84.7441C39.5273 84.7441 51.7725 83.5326 75.1834 64.3471" stroke="#7DBFEE" stroke-miterlimit="10"/>
<path d="M45.5586 94.207C45.5586 94.207 62.4597 92.386 80.0699 74.2819" stroke="#7DBFEE" stroke-miterlimit="10"/>
<path d="M49.8945 101.719C49.8945 101.719 68.4622 102.621 84.8149 82.5023" stroke="#7DBFEE" stroke-miterlimit="10"/>
<path d="M52.7188 104.811C52.7188 104.811 61.0495 104.347 71.0305 98.3957" stroke="#7DBFEE" stroke-miterlimit="10"/>
<path d="M57.9648 113.404C57.9648 113.404 76.6962 114.59 91.1406 94.4392" stroke="#7DBFEE" stroke-miterlimit="10"/>
<path d="M55.6641 109.914C55.6641 109.914 63.8729 111.694 75.1674 104.417" stroke="#7DBFEE" stroke-miterlimit="10"/>
<path d="M74.6503 113.503C77.6595 112.332 80.4232 110.736 82.9006 108.645" stroke="#7DBFEE" stroke-miterlimit="10"/>
<path d="M45.8454 78.8284L45.6328 78.9512L45.7556 79.1638L45.9681 79.041L45.8454 78.8284Z" stroke="#7DBFEE" stroke-miterlimit="10"/>
<path d="M43.6462 80.098L43.4336 80.2207L43.5563 80.4333L43.7689 80.3106L43.6462 80.098Z" stroke="#7DBFEE" stroke-miterlimit="10"/>
<path d="M38.7751 77.7132L38.5625 77.8359L38.6852 78.0485L38.8978 77.9258L38.7751 77.7132Z" stroke="#7DBFEE" stroke-miterlimit="10"/>
<path d="M40.9392 80.1507L40.7266 80.2734L40.8493 80.486L41.0619 80.3633L40.9392 80.1507Z" stroke="#7DBFEE" stroke-miterlimit="10"/>
<path d="M41.6462 82.1976L41.4336 82.3203L41.5563 82.5329L41.7689 82.4102L41.6462 82.1976Z" stroke="#7DBFEE" stroke-miterlimit="10"/>
<path d="M45.7321 80.596L45.5195 80.7188L45.6423 80.9314L45.8549 80.8086L45.7321 80.596Z" stroke="#7DBFEE" stroke-miterlimit="10"/>
<path d="M42.4587 78.0413L42.2461 78.1641L42.3688 78.3767L42.5814 78.2539L42.4587 78.0413Z" stroke="#7DBFEE" stroke-miterlimit="10"/>
<path d="M48.7282 79.2425L48.5156 79.3652L48.6384 79.5778L48.851 79.4551L48.7282 79.2425Z" stroke="#7DBFEE" stroke-miterlimit="10"/>
<path d="M50.1696 76.9925L49.957 77.1152L50.0798 77.3278L50.2924 77.2051L50.1696 76.9925Z" stroke="#7DBFEE" stroke-miterlimit="10"/>
<path d="M46.7282 76.43L46.5156 76.5527L46.6384 76.7653L46.851 76.6426L46.7282 76.43Z" stroke="#7DBFEE" stroke-miterlimit="10"/>
<path d="M48.0407 75.1038L47.8281 75.2266L47.9509 75.4392L48.1635 75.3164L48.0407 75.1038Z" stroke="#7DBFEE" stroke-miterlimit="10"/>
<path d="M45.5446 73.2386L45.332 73.3613L45.4548 73.5739L45.6674 73.4512L45.5446 73.2386Z" stroke="#7DBFEE" stroke-miterlimit="10"/>
<path d="M43.779 75.5804L43.5664 75.7031L43.6891 75.9157L43.9017 75.793L43.779 75.5804Z" stroke="#7DBFEE" stroke-miterlimit="10"/>
<path d="M41.2829 76.1702L41.0703 76.293L41.193 76.5056L41.4056 76.3828L41.2829 76.1702Z" stroke="#7DBFEE" stroke-miterlimit="10"/>
<path d="M44.822 77.0569L44.6094 77.1797L44.7321 77.3923L44.9447 77.2695L44.822 77.0569Z" stroke="#7DBFEE" stroke-miterlimit="10"/>
<path d="M56.6853 97.6077L56.4727 97.7305L56.5954 97.9431L56.808 97.8203L56.6853 97.6077Z" stroke="#7DBFEE" stroke-miterlimit="10"/>
<path d="M54.4899 98.8753L54.2773 98.998L54.4001 99.2106L54.6127 99.0879L54.4899 98.8753Z" stroke="#7DBFEE" stroke-miterlimit="10"/>
<path d="M49.6188 96.4925L49.4062 96.6152L49.529 96.8278L49.7416 96.7051L49.6188 96.4925Z" stroke="#7DBFEE" stroke-miterlimit="10"/>
<path d="M51.779 98.928L51.5664 99.0508L51.6891 99.2634L51.9017 99.1406L51.779 98.928Z" stroke="#7DBFEE" stroke-miterlimit="10"/>
<path d="M56.572 99.3753L56.3594 99.498L56.4821 99.7106L56.6947 99.5879L56.572 99.3753Z" stroke="#7DBFEE" stroke-miterlimit="10"/>
<path d="M53.3024 96.8206L53.0898 96.9434L53.2126 97.1559L53.4252 97.0332L53.3024 96.8206Z" stroke="#7DBFEE" stroke-miterlimit="10"/>
<path d="M59.572 98.0218L59.3594 98.1445L59.4821 98.3571L59.6947 98.2344L59.572 98.0218Z" stroke="#7DBFEE" stroke-miterlimit="10"/>
<path d="M61.0134 95.7718L60.8008 95.8945L60.9235 96.1071L61.1361 95.9844L61.0134 95.7718Z" stroke="#7DBFEE" stroke-miterlimit="10"/>
<path d="M57.5681 95.2093L57.3555 95.332L57.4782 95.5446L57.6908 95.4219L57.5681 95.2093Z" stroke="#7DBFEE" stroke-miterlimit="10"/>
<path d="M58.8806 93.8831L58.668 94.0059L58.7907 94.2185L59.0033 94.0957L58.8806 93.8831Z" stroke="#7DBFEE" stroke-miterlimit="10"/>
<path d="M54.6228 94.3597L54.4102 94.4824L54.5329 94.695L54.7455 94.5723L54.6228 94.3597Z" stroke="#7DBFEE" stroke-miterlimit="10"/>
<path d="M52.1267 94.9495L51.9141 95.0723L52.0368 95.2849L52.2494 95.1621L52.1267 94.9495Z" stroke="#7DBFEE" stroke-miterlimit="10"/>
<path d="M55.6618 95.8362L55.4492 95.959L55.572 96.1716L55.7846 96.0488L55.6618 95.8362Z" stroke="#7DBFEE" stroke-miterlimit="10"/>
<path d="M32.1283 68.9838C32.1283 68.9838 51.0771 59.7445 64.5516 49.6973" stroke="#7DBFEE" stroke-miterlimit="10"/>
</g>
<defs>
<clipPath id="clip0">
<rect width="45.8236" height="121.514" fill="white" transform="translate(0.804688 22.9121) rotate(-30)"/>
</clipPath>
</defs>
</svg>
